<svg xmlns="http://www.w3.org/2000/svg" width="24" height="30" viewBox="0 0 24 30">
  <g id="notification" transform="translate(-828 -525)">
    <path id="Path_1" data-name="Path 1" d="M26.59,21.17A2,2,0,0,1,26,19.76V14a10,10,0,0,0-7.64-9.71,2.47,2.47,0,0,0,.14-.79,2.5,2.5,0,1,0-5,0,2.47,2.47,0,0,0,.14.79A10,10,0,0,0,6,14v5.76a2,2,0,0,1-.59,1.41A4.79,4.79,0,0,0,4,24.59V25a2,2,0,0,0,2,2h7.18a3,3,0,1,0,5.64,0H26a2,2,0,0,0,2-2v-.41a4.79,4.79,0,0,0-1.41-3.42ZM15.5,3.5A.5.5,0,1,1,16,4,.5.5,0,0,1,15.5,3.5Z" transform="translate(824 524)"/>
  </g>
</svg>
